<?xml version="1.0" standalone="no"?>
<!DOCTYPE svg PUBLIC "-//W3C//DTD SVG 20010904//EN"
 "http://www.w3.org/TR/2001/REC-SVG-20010904/DTD/svg10.dtd">
<svg version="1.0" xmlns="http://www.w3.org/2000/svg"
 width="225.000000pt" height="225.000000pt" viewBox="0 0 225.000000 225.000000"
 preserveAspectRatio="xMidYMid meet">

<g transform="translate(0.000000,225.000000) scale(0.100000,-0.100000)"
fill="#000000" stroke="none">
<path d="M1532 1897 c-131 -89 -157 -193 -61 -243 20 -10 35 -11 53 -4 17 6
26 6 28 -2 3 -7 15 -5 36 6 29 15 32 15 32 0 0 -10 -5 -14 -15 -10 -9 3 -15 0
-15 -9 0 -20 26 -19 34 1 3 8 11 12 17 8 6 -3 14 -2 18 5 5 8 16 8 39 -1 38
-15 42 -27 7 -21 -13 3 -45 -2 -71 -11 -38 -13 -50 -13 -62 -3 -9 6 -4 -6 11
-28 24 -35 25 -41 12 -51 -23 -17 -18 -27 25 -52 41 -23 44 -29 34 -56 -4 -11
-11 -13 -31 -5 -35 13 -46 11 -39 -7 5 -13 3 -14 -6 -6 -20 16 -63 3 -94 -29
l-28 -29 27 0 c15 0 27 4 27 9 0 6 8 9 19 8 21 -1 21 -11 3 -45 -19 -34 -5
-44 25 -16 28 26 43 31 43 13 0 -8 6 -7 18 2 15 13 16 12 3 -3 -9 -13 -10 -18
-2 -18 7 0 9 -5 5 -11 -4 -8 -9 -7 -15 2 -6 11 -11 11 -20 2 -17 -17 -4 -30
35 -35 19 -2 32 0 30 4 -3 4 1 8 8 8 9 0 9 3 -2 10 -21 13 -3 13 22 -1 15 -8
33 -7 72 5 64 21 70 25 74 56 3 28 21 43 38 29 7 -6 22 2 45 23 50 48 79 100
79 143 0 21 9 49 21 66 28 40 22 69 -37 166 -10 18 -32 38 -49 45 -16 6 -43
26 -60 44 -52 57 -116 84 -198 84 -68 -1 -75 -3 -135 -43z m292 -390 c-4 -11
-16 -16 -33 -16 -23 2 -24 2 -3 6 14 3 22 12 22 26 0 14 3 18 10 11 6 -6 8
-18 4 -27z m-150 1 c-3 -4 -11 -5 -19 -1 -21 7 -19 12 4 10 11 0 18 -5 15 -9z
m84 -13 c-3 -3 -9 2 -12 12 -6 14 -5 15 5 6 7 -7 10 -15 7 -18z m-45 -111 c-3
-9 -11 -13 -22 -8 -9 4 -28 9 -43 12 -16 2 -28 8 -28 13 0 5 12 6 26 3 22 -6
25 -4 19 7 -7 12 -6 12 7 1 13 -10 17 -9 22 10 l7 23 9 -23 c5 -12 7 -29 3
-38z m27 -14 c0 -5 -2 -10 -4 -10 -3 0 -8 5 -11 10 -3 6 -1 10 4 10 6 0 11 -4
11 -10z m75 -10 c3 -5 1 -10 -4 -10 -6 0 -11 5 -11 10 0 6 2 10 4 10 3 0 8 -4
11 -10z m-75 -30 c0 -5 -5 -10 -11 -10 -5 0 -7 5 -4 10 3 6 8 10 11 10 2 0 4
-4 4 -10z m-50 -20 c0 -5 -2 -10 -4 -10 -3 0 -8 5 -11 10 -3 6 -1 10 4 10 6 0
11 -4 11 -10z m44 -9 c3 -5 0 -11 -7 -14 -8 -3 -14 1 -14 9 0 16 13 19 21 5z"/>
<path d="M1428 1289 l-31 -30 24 -27 c74 -85 81 -91 98 -80 15 9 13 14 -16 45
-39 41 -41 53 -10 72 l22 15 -25 6 c-14 4 -24 12 -22 18 4 19 -8 14 -40 -19z"/>
<path d="M1814 1292 c3 -5 -3 -18 -14 -30 -15 -16 -28 -19 -59 -16 -22 3 -42
0 -46 -6 -4 -6 -22 -8 -44 -4 -24 4 -41 2 -45 -5 -4 -6 -12 -9 -17 -6 -14 9
-11 -2 11 -45 11 -22 20 -44 20 -49 0 -16 -38 -23 -59 -12 -25 14 -38 -4 -14
-18 10 -6 16 -11 13 -11 -31 -7 -40 -7 -40 1 0 17 -30 -4 -50 -36 -18 -30 -19
-38 -9 -82 18 -75 28 -96 44 -89 9 3 12 0 8 -9 -8 -23 45 -39 87 -26 33 10 63
0 41 -13 -6 -4 -11 -3 -11 2 0 6 -9 8 -20 5 -31 -8 -24 -25 37 -87 64 -65 88
-80 110 -72 24 10 36 -5 16 -20 -17 -12 -17 -13 -1 -14 10 0 22 -9 28 -21 7
-11 14 -18 17 -16 2 3 14 -4 24 -14 25 -25 53 -21 57 9 2 12 7 22 12 22 15 0
31 40 25 61 -4 10 -10 17 -15 14 -4 -3 -6 4 -3 15 3 12 0 20 -6 20 -7 0 -1 18
14 43 14 24 25 59 25 78 0 41 3 40 -151 43 -105 2 -107 2 -144 35 -35 31 -36
33 -19 46 11 9 14 14 7 15 -18 0 -16 35 2 54 8 8 15 32 16 53 0 21 3 32 6 26
2 -7 9 -13 14 -13 4 0 6 6 3 14 -4 11 2 14 26 14 17 -1 33 -5 36 -10 3 -4 10
-6 15 -2 7 4 10 -12 9 -42 -1 -27 -1 -54 -1 -61 1 -6 22 -14 49 -18 97 -12
111 -16 147 -41 35 -23 39 -24 54 -9 15 15 14 17 -9 35 -13 10 -27 17 -31 14
-4 -2 -12 3 -19 11 -9 10 -9 15 -1 15 6 0 11 4 11 10 0 5 -14 7 -30 5 -17 -2
-28 0 -25 6 4 5 1 9 -5 9 -7 0 -9 8 -5 20 6 18 3 20 -18 15 -14 -4 -37 0 -53
8 -16 8 -35 12 -41 10 -7 -3 -13 3 -13 12 0 11 -5 15 -14 12 -25 -10 5 63 36
86 15 11 24 25 21 30 -4 6 -1 7 6 3 7 -5 10 -14 7 -22 -3 -7 -1 -16 4 -19 6
-4 10 -12 10 -18 0 -8 -3 -7 -9 2 -7 11 -12 7 -24 -15 -13 -25 -13 -31 -1 -42
11 -10 19 -4 44 35 36 59 39 77 8 67 -21 -6 -22 -5 -8 11 14 17 13 18 -2 12
-20 -7 -35 9 -16 16 7 3 3 6 -10 6 -13 1 -21 -3 -18 -7z m26 -234 c0 -13 -23
-5 -28 10 -2 7 2 10 12 6 9 -3 16 -11 16 -16z m-35 -8 c3 -5 -3 -10 -15 -10
-12 0 -18 5 -15 10 3 6 10 10 15 10 5 0 12 -4 15 -10z m-200 -20 c-3 -5 -11
-10 -16 -10 -6 0 -7 5 -4 10 3 6 11 10 16 10 6 0 7 -4 4 -10z m-92 -115 c-3
-9 -8 -14 -10 -11 -3 3 -2 9 2 15 9 16 15 13 8 -4z m125 -11 c2 -1 -1 -5 -7
-8 -5 -4 -15 4 -22 16 -12 22 -11 22 7 8 10 -8 20 -15 22 -16z m36 -9 c3 -9 0
-15 -9 -15 -9 0 -12 6 -9 15 4 8 7 15 9 15 2 0 5 -7 9 -15z m6 -39 c-7 -7 -13
-7 -20 0 -6 6 -3 10 10 10 13 0 16 -4 10 -10z m81 -46 c13 -10 19 -19 12 -20
-6 0 -13 -6 -16 -12 -2 -7 -3 -5 -2 4 3 20 -11 34 -40 41 -19 4 -19 5 1 6 12
0 32 -8 45 -19z m-78 3 c-7 -2 -19 -2 -25 0 -7 3 -2 5 12 5 14 0 19 -2 13 -5z
m247 -3 c0 -5 -5 -10 -11 -10 -5 0 -7 5 -4 10 3 6 8 10 11 10 2 0 4 -4 4 -10z
m-57 -91 c22 -25 20 -27 -18 -18 -17 4 -22 7 -11 8 15 1 16 4 6 16 -7 8 -8 15
-3 15 5 0 17 -9 26 -21z m34 -55 c-3 -3 -12 -4 -19 -1 -8 3 -5 6 6 6 11 1 17
-2 13 -5z"/>
<path d="M1754 1268 c-4 -5 -3 -12 0 -15 3 -4 6 -1 6 6 0 7 4 10 9 6 5 -3 12
-2 15 3 3 5 -2 9 -10 9 -8 0 -17 -4 -20 -9z"/>
<path d="M1255 1170 c0 -50 8 -64 19 -34 11 28 7 84 -6 84 -9 0 -13 -17 -13
-50z"/>
<path d="M100 1191 c0 -6 5 -13 10 -16 6 -4 10 -68 10 -161 l0 -154 25 0 c24
0 24 2 27 93 l3 92 45 -92 c40 -83 48 -93 73 -93 l27 0 0 170 0 170 -25 0 -25
0 -1 -117 0 -118 -54 107 c-50 98 -75 128 -104 128 -6 0 -11 -4 -11 -9z"/>
<path d="M532 1069 c0 -71 -3 -133 -6 -137 -16 -15 -26 29 -26 118 0 93 -1 95
-18 72 -16 -21 -20 -22 -31 -8 -34 41 -91 2 -112 -77 -20 -76 14 -177 61 -177
19 0 50 40 50 65 0 8 5 15 10 15 6 0 10 -9 10 -19 0 -46 30 -67 56 -41 8 8 15
6 24 -5 8 -9 29 -15 55 -15 52 0 80 -21 136 -100 23 -33 52 -66 65 -75 36 -24
39 -18 4 11 -17 15 -49 53 -71 85 -42 62 -75 90 -112 94 -12 1 -25 3 -29 4 -5
0 -8 53 -8 116 0 96 3 115 15 115 8 0 15 5 15 10 0 6 -7 10 -15 10 -10 0 -15
11 -15 35 0 32 -3 35 -29 35 l-29 0 0 -131z m-94 29 c15 -15 16 -105 1 -147
-12 -33 -42 -43 -53 -15 -10 27 -7 122 6 149 12 27 27 32 46 13z"/>
<path d="M652 1183 c2 -10 13 -19 26 -21 17 -3 22 2 22 17 0 16 -6 21 -26 21
-19 0 -25 -5 -22 -17z"/>
<path d="M900 1030 l0 -170 25 0 25 0 0 123 c0 68 3 126 6 130 3 3 12 3 20 0
11 -4 14 -32 14 -129 l0 -124 30 0 30 0 0 113 c0 129 -10 154 -63 159 -28 3
-32 7 -35 36 -3 26 -7 32 -28 32 l-24 0 0 -170z"/>
<path d="M1334 1128 c-23 -6 -33 -15 -37 -34 -7 -41 2 -61 43 -89 41 -28 54
-59 44 -100 -10 -41 -34 -31 -34 15 0 38 -1 40 -31 40 -31 0 -31 -1 -26 -36 8
-51 23 -64 72 -64 50 0 65 14 72 69 5 36 2 44 -29 73 -20 18 -43 39 -52 46
-18 14 -21 39 -7 61 12 19 31 4 31 -25 0 -19 5 -24 25 -24 20 0 25 5 25 24 0
40 -41 59 -96 44z"/>
<path d="M1505 1130 c-16 -7 -17 -9 -3 -9 9 -1 20 4 23 9 7 11 7 11 -20 0z"/>
<path d="M650 1007 c0 -122 0 -124 25 -135 l25 -12 0 135 0 135 -25 0 -25 0 0
-123z"/>
<path d="M751 1003 c10 -71 18 -131 19 -135 0 -5 15 -8 33 -8 l33 0 18 131
c16 119 16 153 0 136 -3 -3 -12 -46 -18 -96 -7 -50 -15 -94 -18 -96 -3 -3 -8
23 -12 57 -15 135 -16 138 -45 138 l-27 0 17 -127z"/>
<path d="M1092 1118 c-17 -17 -17 -229 0 -246 16 -16 100 -16 116 0 17 17 17
229 0 246 -7 7 -33 12 -58 12 -25 0 -51 -5 -58 -12z m78 -123 c0 -108 -1 -115
-20 -115 -19 0 -20 7 -20 115 0 108 1 115 20 115 19 0 20 -7 20 -115z"/>
<path d="M1960 1085 c0 -8 2 -15 4 -15 2 0 6 7 10 15 3 8 1 15 -4 15 -6 0 -10
-7 -10 -15z"/>
<path d="M1655 1027 c-19 -10 -19 -10 0 -17 22 -8 45 -2 45 10 0 14 -26 18
-45 7z"/>
<path d="M840 780 c0 -34 3 -40 13 -32 16 14 16 64 0 70 -9 2 -13 -9 -13 -38z"/>
<path d="M991 803 c0 -10 4 -27 9 -38 6 -15 8 -11 7 17 -1 21 -5 38 -9 38 -5
0 -8 -8 -7 -17z"/>
<path d="M1249 788 c5 -32 6 -32 9 -5 4 30 18 36 26 10 4 -14 4 -14 3 2 -1 12
-11 21 -23 23 -18 3 -20 -1 -15 -30z"/>
<path d="M1346 806 c5 -14 4 -17 -4 -12 -8 5 -12 -2 -11 -21 0 -15 3 -22 6
-15 2 6 8 10 12 8 10 -6 8 40 -2 50 -4 5 -5 0 -1 -10z"/>
<path d="M1377 813 c-4 -3 -7 -18 -7 -31 0 -14 3 -22 7 -19 3 4 13 1 21 -6 12
-9 11 -5 -2 15 -10 15 -15 32 -11 38 7 11 2 14 -8 3z"/>
<path d="M806 793 c-7 -16 13 -38 24 -26 3 3 0 8 -7 10 -7 2 -9 11 -6 19 3 8
3 14 0 14 -3 0 -8 -8 -11 -17z"/>
<path d="M926 795 c-9 -26 -7 -32 5 -12 6 10 9 21 6 23 -2 3 -7 -2 -11 -11z"/>
<path d="M951 788 c-8 -23 1 -38 24 -38 6 0 3 5 -5 10 -13 9 -13 11 0 20 13 9
13 10 0 10 -13 0 -13 1 0 10 11 7 11 10 2 10 -7 0 -16 -10 -21 -22z"/>
<path d="M1040 806 c0 -2 7 -7 16 -10 8 -3 12 -2 9 4 -6 10 -25 14 -25 6z"/>
<path d="M1084 795 c-8 -20 2 -45 18 -45 10 0 10 2 0 9 -14 9 -13 32 3 43 6 5
5 8 -3 8 -7 0 -15 -7 -18 -15z"/>
<path d="M1151 798 c0 -9 -4 -25 -7 -35 -4 -11 -3 -14 3 -7 4 6 15 10 24 9 12
-2 15 3 11 17 -3 14 -7 16 -12 7 -6 -8 -9 -6 -13 7 -4 15 -5 16 -6 2z"/>
<path d="M1300 795 c0 -8 4 -15 8 -15 5 0 9 7 9 15 0 8 -4 15 -9 15 -4 0 -8
-7 -8 -15z"/>
<path d="M1416 793 c-7 -16 13 -38 24 -26 3 3 0 8 -7 10 -7 2 -9 11 -6 19 3 8
3 14 0 14 -3 0 -8 -8 -11 -17z"/>
<path d="M890 791 c13 -10 13 -12 0 -22 -13 -9 -13 -10 0 -6 8 2 15 10 15 17
0 7 -7 15 -15 17 -13 4 -13 3 0 -6z"/>
<path d="M1630 725 c0 -9 6 -12 15 -9 8 4 15 10 15 15 0 5 -7 9 -15 9 -8 0
-15 -7 -15 -15z"/>
<path d="M1585 700 c-3 -5 -1 -10 4 -10 6 0 11 5 11 10 0 6 -2 10 -4 10 -3 0
-8 -4 -11 -10z"/>
<path d="M942 689 c2 -7 -6 -14 -17 -16 -16 -3 -17 -2 -5 6 18 13 1 14 -18 2
-10 -6 -5 -11 19 -20 18 -6 30 -8 26 -5 -4 4 -2 13 4 20 7 8 7 14 -1 19 -6 4
-9 1 -8 -6z"/>
<path d="M1655 683 c-3 -9 0 -20 7 -24 8 -5 14 -3 16 6 2 8 11 15 19 15 21 0
11 10 -15 15 -12 2 -23 -3 -27 -12z"/>
<path d="M1620 662 c29 -23 26 -28 -73 -136 -61 -67 -74 -86 -63 -95 31 -26
62 -15 163 57 91 64 130 98 106 90 -4 -2 -8 0 -8 3 0 15 -31 41 -71 59 -24 10
-44 24 -44 29 0 6 -7 11 -16 11 -13 0 -11 -4 6 -18z"/>
<path d="M1723 656 c-13 -15 -7 -26 14 -26 7 0 13 9 13 20 0 23 -10 25 -27 6z"/>
<path d="M1765 630 c-3 -5 -1 -18 4 -28 6 -11 7 -23 3 -27 -4 -5 -1 -5 6 -1 7
4 10 12 7 17 -4 5 -1 9 4 9 6 0 11 5 11 11 0 6 -7 8 -16 5 -12 -4 -15 -2 -10
9 6 17 0 20 -9 5z"/>
<path d="M1450 400 c0 -22 1 -23 24 -14 13 5 14 9 5 20 -16 20 -29 17 -29 -6z"/>
<path d="M1498 386 c-16 -22 -16 -25 0 -39 16 -15 17 -13 18 24 1 21 1 39 0
39 0 0 -9 -11 -18 -24z"/>
<path d="M1526 371 c-4 -7 -5 -15 -2 -18 9 -9 19 4 14 18 -4 11 -6 11 -12 0z"/>
</g>
</svg>
